<svg xmlns="http://www.w3.org/2000/svg" viewBox="0 0 32 32">
  <defs>
    <linearGradient id="grad" x1="0%" y1="0%" x2="100%" y2="100%">
      <stop offset="0%" style="stop-color:#2563eb;stop-opacity:1" />
      <stop offset="100%" style="stop-color:#06b6d4;stop-opacity:1" />
    </linearGradient>
  </defs>
  <!-- Brain Icon -->
  <path fill="url(#grad)" d="M16 4c-3.3 0-6 2.7-6 6 0 1.1.3 2.1.8 3-1.5.9-2.5 2.6-2.5 4.5 0 1.4.5 2.7 1.4 3.6-.4.8-.6 1.7-.6 2.6 0 2.8 2.2 5 5 5h4c2.8 0 5-2.2 5-5 0-.9-.2-1.8-.6-2.6.9-.9 1.4-2.2 1.4-3.6 0-1.9-1-3.6-2.5-4.5.5-.9.8-1.9.8-3 0-3.3-2.7-6-6-6zm0 2c2.2 0 4 1.8 4 4 0 .7-.2 1.4-.5 2-.3-.1-.7-.1-1-.1-1.1 0-2.1.3-3 .8-.9-.5-1.9-.8-3-.8-.3 0-.7 0-1 .1-.3-.6-.5-1.3-.5-2 0-2.2 1.8-4 4-4zm-4.5 8c1.4 0 2.5 1.1 2.5 2.5s-1.1 2.5-2.5 2.5-2.5-1.1-2.5-2.5 1.1-2.5 2.5-2.5zm9 0c1.4 0 2.5 1.1 2.5 2.5s-1.1 2.5-2.5 2.5-2.5-1.1-2.5-2.5 1.1-2.5 2.5-2.5zm-6.5 8h4c1.7 0 3 1.3 3 3s-1.3 3-3 3h-4c-1.7 0-3-1.3-3-3s1.3-3 3-3z"/>
</svg>
